<svg width="320" height="949" viewBox="0 0 320 949" fill="none" xmlns="http://www.w3.org/2000/svg">
<g filter="url(#filter0_f_16209_4)">
<path d="M76.0138 753.171C80.9869 744.721 119.756 758.317 162.608 783.537C205.46 808.758 236.167 836.053 231.193 844.503C226.22 852.952 187.451 839.357 144.599 814.136C101.747 788.915 71.0407 761.62 76.0138 753.171Z" fill="#00C5EB" fill-opacity="0.4"/>
<path d="M175.3 852.805C180.273 844.355 205.506 849.984 231.66 865.376C257.814 880.769 274.984 900.097 270.011 908.547C265.038 916.997 239.804 911.368 213.651 895.975C187.497 880.582 170.327 861.254 175.3 852.805Z" fill="#7D55FF" fill-opacity="0.4"/>
<path d="M150.297 318.093C114.954 395.241 47.0594 437.068 -1.34888 411.516C-49.7572 385.964 -60.3484 302.708 -25.005 225.56C10.3383 148.411 78.2325 106.584 126.641 132.137C175.049 157.689 185.64 240.944 150.297 318.093Z" fill="#7D55FF" fill-opacity="0.3"/>
<path d="M325.115 168.281C266.961 108.969 190.44 85.8443 154.2 116.629C117.96 147.415 135.725 220.452 193.88 279.764C252.034 339.075 328.555 362.2 364.795 331.415C401.034 300.63 383.269 227.592 325.115 168.281Z" fill="#00C5EB" fill-opacity="0.3"/>
<path d="M182.586 849.536C185.982 849.126 190.358 849.507 195.428 850.638C205.564 852.899 218.362 858.13 231.407 865.808C244.451 873.485 255.237 882.134 262.134 889.897C265.585 893.781 268.042 897.422 269.332 900.59C270.624 903.766 270.708 906.376 269.58 908.294C268.451 910.212 266.129 911.404 262.724 911.815C259.329 912.226 254.953 911.845 249.882 910.714C239.747 908.453 226.949 903.221 213.905 895.544C200.86 887.867 190.073 879.218 183.176 871.454C179.726 867.57 177.269 863.929 175.98 860.762C174.687 857.585 174.602 854.976 175.731 853.059C176.86 851.141 179.182 849.948 182.586 849.536ZM79.521 751.501C81.0655 751.131 83.094 751.064 85.5679 751.302C90.5129 751.777 97.1213 753.457 104.941 756.199C120.572 761.681 140.948 771.369 162.355 783.968C183.761 796.567 202.122 809.678 214.502 820.683C220.696 826.188 225.373 831.149 228.189 835.242C229.598 837.29 230.523 839.096 230.95 840.626C231.376 842.155 231.29 843.352 230.762 844.249C230.234 845.146 229.23 845.802 227.686 846.172C226.141 846.542 224.113 846.61 221.639 846.372C216.694 845.897 210.086 844.216 202.266 841.474C186.635 835.992 166.259 826.304 144.853 813.705C123.446 801.106 105.085 787.995 92.7046 776.99C86.5113 771.485 81.8338 766.524 79.0181 762.432C77.6095 760.384 76.684 758.578 76.2573 757.048C75.8309 755.519 75.9169 754.322 76.4448 753.425C76.9729 752.528 77.9771 751.87 79.521 751.501ZM46.1812 140.761C73.5273 123.914 102.41 119.912 126.408 132.579C130.578 134.781 134.467 137.416 138.07 140.442C133.769 154.014 133.926 170.224 138.157 187.617C143.099 207.934 153.603 229.915 169.11 251.304C166.369 272.98 160.013 295.683 149.842 317.885C132.204 356.385 106.455 386.046 79.1108 402.892C51.7647 419.738 22.8825 423.742 -1.11572 411.074C-25.1246 398.401 -39.8184 371.381 -44.0874 337.823C-48.3552 304.275 -42.1877 264.268 -24.5503 225.769C-6.91236 187.268 18.8369 157.606 46.1812 140.761ZM154.524 117.011C172.456 101.777 200.438 99.8226 231.294 109.147C262.132 118.467 295.731 139.026 324.758 168.631C353.786 198.236 372.712 231.247 379.867 260.663C387.024 290.091 382.388 315.814 364.471 331.034C346.539 346.268 318.556 348.221 287.7 338.896C256.862 329.577 223.264 309.019 194.237 279.414C185.216 270.214 177.171 260.683 170.152 251.035C172.125 235.183 172.175 219.876 170.372 205.703C166.859 178.095 156.309 154.746 139.227 140.113C142.23 131.001 147.296 123.151 154.524 117.011ZM138.897 141.147C155.549 155.591 165.909 178.55 169.379 205.829C171.131 219.596 171.123 234.45 169.289 249.841C154.194 228.82 143.968 207.279 139.128 187.381C134.967 170.272 134.793 154.416 138.897 141.147Z" stroke="black"/>
</g>
<defs>
<filter id="filter0_f_16209_4" x="-148.888" y="0" width="635.471" height="1015.48" filterUnits="userSpaceOnUse" color-interpolation-filters="sRGB">
<feFlood flood-opacity="0" result="BackgroundImageFix"/>
<feBlend mode="normal" in="SourceGraphic" in2="BackgroundImageFix" result="shape"/>
<feGaussianBlur stdDeviation="51.5" result="effect1_foregroundBlur_16209_4"/>
</filter>
</defs>
</svg>
