<svg xmlns="http://www.w3.org/2000/svg" aria-hidden="true" style="position:absolute;width:0;height:0;overflow:hidden">
  <defs>

  <!-- Header -->
      <symbol id="icon-burger" viewBox="0 0 52 32">
      <path stroke-linecap="round" stroke-width="4" d="M2 2h48M2 16h48M2 30h48"/>
    </symbol>

     <symbol id="icon-arrow" viewBox="0 0 32 32">
      <path d="m9.6 24 8-8-8-8 1.6-3.2L22.4 16 11.2 27.2z"/>
    </symbol>

  <!-- Video -->
     <symbol id="icon-android" viewBox="0 0 28 32">
      <path d="M5.261 24.204c0 .836.708 1.518 1.578 1.518h1.804v4.3c0 1.089.908 1.979 2.023 1.979 1.119 0 2.023-.886 2.023-1.979v-4.303h3.149v4.3c0 1.089.908 1.979 2.023 1.979 1.119 0 2.023-.886 2.023-1.979v-4.3h1.804c.871 0 1.578-.682 1.578-1.518V10.087H5.261zM18.49 2.773 20.153.452c.096-.136.074-.318-.056-.407-.13-.086-.315-.043-.411.093L17.96 2.552c-1.137-.432-2.404-.671-3.734-.671s-2.597.239-3.734.671L8.766.141C8.67.005 8.484-.041 8.355.048c-.13.086-.152.264-.056.407l1.663 2.321C7.317 3.962 5.465 6.208 5.227 8.833h18.005c-.245-2.628-2.101-4.875-4.742-6.06m-8.065 3.66c-.197 0-.39-.056-.554-.162s-.292-.256-.367-.431a.94.94 0 0 1 .216-1.047 1.03 1.03 0 0 1 1.086-.208c.182.073.338.196.447.354s.168.344.168.534c-.001.255-.106.499-.293.679s-.44.281-.704.282zm7.72 0c-.197 0-.39-.056-.554-.162s-.292-.256-.367-.431a.94.94 0 0 1 .216-1.047 1.03 1.03 0 0 1 1.086-.208c.182.073.338.196.447.354s.168.344.168.534c-.001.255-.106.499-.293.679s-.44.281-.704.282zm8.277 3.597c-1.119 0-2.023.886-2.023 1.979v7.728c0 1.089.908 1.979 2.023 1.979 1.119 0 2.023-.886 2.023-1.979v-7.732c.004-1.093-.9-1.975-2.023-1.975m-24.399 0C.904 10.03 0 10.916 0 12.009v7.728c0 1.089.908 1.979 2.023 1.979 1.119 0 2.023-.886 2.023-1.979v-7.732c0-1.093-.908-1.975-2.023-1.975"/>
    </symbol>
    <symbol id="icon-apple" viewBox="0 0 27 32">
      <path d="M20.372 7.314c-2.881 0-4.098 1.384-6.104 1.384-2.057 0-3.626-1.374-6.122-1.374-2.443 0-5.049 1.502-6.704 4.061-2.323 3.608-1.929 10.404 1.834 16.193C4.622 29.65 6.42 31.975 8.777 32h.043c2.049 0 2.658-1.351 5.478-1.367h.043c2.778 0 3.335 1.359 5.375 1.359h.043c2.358-.025 4.252-2.6 5.598-4.665.969-1.485 1.329-2.23 2.072-3.91-5.443-2.08-6.318-9.85-.934-12.829-1.643-2.072-3.952-3.272-6.129-3.272l.007-.003zM20.056 0c-1.658.111-3.593 1.148-4.726 2.502-1.028 1.227-1.874 3.047-1.542 4.813h.133c1.766 0 3.573-1.045 4.629-2.383 1.017-1.274 1.788-3.079 1.506-4.931z"/>
    </symbol>
  
  <!-- Testimonials -->
    <symbol id="icon-pag" viewBox="0 0 32 32">
      <path d="M32 16c0 8.837-7.163 16-16 16S0 24.837 0 16 7.163 0 16 0s16 7.163 16 16"/>
    </symbol>
  
  <!-- Footer -->
   <symbol id="icon-in" viewBox="0 0 32 32">
      <path d="M6.964 31.111H.514V10.34h6.45zM3.736 7.507C1.674 7.507 0 5.798 0 3.736a3.735 3.735 0 0 1 7.47 0c0 2.062-1.673 3.771-3.736 3.771zm27.368 23.604h-6.436V21c0-2.41-.049-5.5-3.353-5.5-3.353 0-3.868 2.618-3.868 5.327v10.284h-6.443V10.34h6.186v2.833h.09c.861-1.632 2.964-3.354 6.102-3.354 6.528 0 7.728 4.299 7.728 9.882v11.41z"/>
    </symbol>
    <symbol id="icon-facebook" viewBox="0 0 32 32">
      <path d="M22.4 2.667h-4a6.67 6.67 0 0 0-6.667 6.667v4h-4v5.333h4v10.667h5.333V18.667h4l1.333-5.333h-5.333v-4A1.335 1.335 0 0 1 18.4 8h4z"/>
    </symbol>
    <symbol id="icon-twitter" viewBox="0 0 32 32">
      <path d="M30.134 5.599a13.5 13.5 0 0 1-3.882 1.892 5.548 5.548 0 0 0-6.155-1.54 5.545 5.545 0 0 0-3.564 5.249v1.236A13.18 13.18 0 0 1 5.406 6.835S.461 17.962 11.588 22.908a14.4 14.4 0 0 1-8.655 2.473c11.127 6.182 24.727 0 24.727-14.218a5.5 5.5 0 0 0-.099-1.026A9.55 9.55 0 0 0 30.133 5.6z"/>
    </symbol>
   
  <!-- Mobile menu -->
    <symbol id="icon-close" viewBox="0 0 32 32">
      <path d="M23.884 6.706 16 14.59 8.116 6.706a.995.995 0 0 0-1.38.031 1 1 0 0 0-.031 1.38l7.88 7.884-7.882 7.882a1 1 0 0 0-.018 1.427 1 1 0 0 0 1.427-.015l7.886-7.882 7.884 7.884a1 1 0 0 0 1.38-.03 1 1 0 0 0 .03-1.38l-7.884-7.884 7.884-7.886a1 1 0 0 0 .018-1.427 1 1 0 0 0-1.427.015v.002z"/>
    </symbol>

<!-- Modal -->
     <symbol id="icon-eos" viewBox="0 0 32 32">
      <path d="M28.005 2.672h-24a2.674 2.674 0 0 0-2.666 2.666v16a2.674 2.674 0 0 0 2.666 2.666h9.333v2.667h-2.667v2.667h10.667v-2.667h-2.667v-2.667h9.333a2.674 2.674 0 0 0 2.666-2.666v-16a2.674 2.674 0 0 0-2.666-2.666zM14.341 18.227zl-6.333-6.333 1.887-1.884 4.448 4.448 7.78-7.781 1.887 1.887-9.667 9.664z"/>
    </symbol>
    <symbol id="icon-weight" viewBox="0 0 32 32">
      <path d="M26.807 25.481a2.666 2.666 0 0 1-2.663 2.518H7.856a2.67 2.67 0 0 1-2.663-2.518L4.156 6.814c-.02-.362.034-.724.158-1.065s.317-.652.567-.915a2.68 2.68 0 0 1 1.936-.835H25.18a2.67 2.67 0 0 1 1.938.834 2.67 2.67 0 0 1 .726 1.981zm-3.978-13.628c.547-.36.684-1.074.235-1.539a9.6 9.6 0 0 0-2.63-1.921 10.2 10.2 0 0 0-4.372-1.058 10.2 10.2 0 0 0-4.407.921 9.7 9.7 0 0 0-2.697 1.837c-.465.451-.353 1.168.181 1.545l2.875 2.031c.533.377 1.285.255 1.838-.097q.214-.136.445-.241a3.9 3.9 0 0 1 1.563-.349l2.262-2.601a.67.67 0 0 1 .715-.195.68.68 0 0 1 .385.335.665.665 0 0 1-.094.735l-1.755 2.017q.358.148.677.365c.54.369 1.287.513 1.833.153l2.945-1.939z"/>
    </symbol>
    <symbol id="icon-download" viewBox="0 0 32 32">
      <path d="M13.5 0h5c.831 0 1.5.669 1.5 1.5V12h5.481c1.112 0 1.669 1.344.881 2.131l-9.506 9.513a1.21 1.21 0 0 1-1.706 0l-9.519-9.513C4.844 13.344 5.4 12 6.512 12H12V1.5c0-.831.669-1.5 1.5-1.5M32 23.5v7c0 .831-.669 1.5-1.5 1.5h-29C.669 32 0 31.331 0 30.5v-7c0-.831.669-1.5 1.5-1.5h9.169l3.062 3.063a3.204 3.204 0 0 0 4.538 0L21.331 22H30.5c.831 0 1.5.669 1.5 1.5M24.25 29c0-.688-.563-1.25-1.25-1.25s-1.25.563-1.25 1.25.563 1.25 1.25 1.25 1.25-.563 1.25-1.25m4 0c0-.688-.563-1.25-1.25-1.25s-1.25.563-1.25 1.25.563 1.25 1.25 1.25 1.25-.563 1.25-1.25"/>
    </symbol>
    <symbol id="icon-lang" viewBox="0 0 32 32">
      <path d="M16 29.333q-2.733 0-5.167-1.051c-2.434-1.051-3.039-1.655-4.249-2.867q-1.817-1.816-2.867-4.249c-1.05-2.433-1.051-3.344-1.051-5.167q0-2.766 1.051-5.183c1.051-2.417 1.655-3.023 2.867-4.233Q8.4 4.765 10.833 3.715c2.433-1.05 3.344-1.049 5.167-1.049q2.766 0 5.183 1.049c2.417 1.049 3.023 1.656 4.233 2.868q1.817 1.817 2.867 4.233c1.05 2.416 1.051 3.338 1.051 5.183q0 2.733-1.051 5.167c-1.051 2.434-1.655 3.039-2.867 4.249q-1.816 1.818-4.233 2.867c-2.417 1.049-3.338 1.051-5.183 1.051m0-2.733q.867-1.2 1.5-2.5c.633-1.3.767-1.789 1.033-2.767h-5.067q.4 1.467 1.033 2.767c.633 1.3.922 1.7 1.5 2.5zm-3.467-.533q-.6-1.1-1.049-2.284c-.449-1.184-.551-1.605-.751-2.449H6.8q.966 1.667 2.416 2.9c1.45 1.233 2.073 1.433 3.317 1.833m6.934 0q1.866-.6 3.316-1.833c1.45-1.233 1.773-1.789 2.417-2.9h-3.933q-.3 1.267-.749 2.449c-.449 1.182-.651 1.551-1.051 2.284m-13.8-7.4H10.2q-.1-.667-.151-1.317c-.051-.65-.049-.883-.049-1.349q0-.7.049-1.349c.049-.649.084-.873.151-1.317H5.667q-.167.667-.251 1.317c-.084.65-.083.883-.083 1.349a10.7 10.7 0 0 0 .334 2.666m7.2 0h6.267q.1-.667.151-1.317c.051-.65.049-.883.049-1.349q0-.7-.049-1.349c-.049-.649-.084-.873-.151-1.317h-6.267a18 18 0 0 0-.149 4.015q.05.65.149 1.317m8.933 0h4.533q.167-.667.251-1.317c.084-.65.083-.883.083-1.349a10.7 10.7 0 0 0-.334-2.666H21.8a18 18 0 0 1 .149 4.015q-.05.65-.149 1.317m-.533-8H25.2q-.966-1.667-2.417-2.9c-1.451-1.233-2.072-1.433-3.316-1.833q.6 1.1 1.051 2.283c.451 1.183.549 1.606.749 2.451zm-7.8 0h5.067q-.4-1.467-1.033-2.767c-.633-1.3-.922-1.7-1.5-2.5q-.867 1.2-1.5 2.5c-.633 1.3-.767 1.789-1.033 2.767zm-6.667 0h3.933q.3-1.266.751-2.451c.451-1.185.649-1.549 1.049-2.283q-1.866.6-3.317 1.833c-1.451 1.233-1.772 1.789-2.416 2.9z"/>
    </symbol>
    <symbol id="icon-zip" viewBox="0 0 32 32">
      <path d="M11 18.876V17h2v1.876q0 .247.06.486l.8 3.196-1.86 1.24-1.86-1.24.8-3.196q.06-.24.06-.486"/>
      <path d="M18.586 0H8a4.003 4.003 0 0 0-4 4v24a4.003 4.003 0 0 0 4 4h16a4.003 4.003 0 0 0 4-4V9.414A2 2 0 0 0 27.414 8L20 .586A2 2 0 0 0 18.586 0M19 7V3l6 6h-4a2 2 0 0 1-2-2m-8-1V4H9V2h3v2h2v2h-2v2h2v2h-2v2h2v2h-3v-2H9v-2h2V8H9V6zm0 9h2a2 2 0 0 1 2 2v1.876l.8 3.198a2 2 0 0 1-.832 2.148l-1.86 1.24a2 2 0 0 1-2.218 0l-1.86-1.24a2.005 2.005 0 0 1-.83-2.149l.8-3.198v-1.876a2 2 0 0 1 2-2z"/>
    </symbol>
    <symbol id="icon-calendar" viewBox="0 0 32 32">
      <path d="M28 26.667V8a2.67 2.67 0 0 0-2.667-2.667h-2.667V2.666h-2.667v2.667h-8V2.666H9.332v2.667H6.665A2.67 2.67 0 0 0 3.998 8v18.667a2.67 2.67 0 0 0 2.667 2.667h18.667a2.67 2.67 0 0 0 2.667-2.667zM12 24H9.333v-2.667H12zm0-5.333H9.333V16H12zM17.333 24h-2.667v-2.667h2.667zm0-5.333h-2.667V16h2.667zM22.667 24H20v-2.667h2.667zm0-5.333H20V16h2.667zM25.333 12H6.666V9.333h18.667z"/>
    </symbol>
    <symbol id="icon-user" viewBox="0 0 32 32">
      <path d="M26.749 24.93a13.99 13.99 0 1 0-24.748-8.932 13.9 13.9 0 0 0 3.251 8.93l-.02.017c.07.084.15.156.222.239.09.103.187.2.28.3q.418.457.87.87.14.124.28.242.48.415.99.782c.044.03.084.069.128.1v-.012a13.9 13.9 0 0 0 16 0v.012c.044-.031.083-.07.128-.1q.51-.368.99-.782.14-.119.28-.242.452-.413.87-.87c.093-.1.189-.197.28-.3.071-.083.152-.155.222-.24l-.022-.016zM16 8a4.5 4.5 0 0 1 4.157 2.778 4.502 4.502 0 0 1-3.28 6.136 4.502 4.502 0 0 1-5.378-4.413 4.5 4.5 0 0 1 4.5-4.5zM8.007 24.93A4.995 4.995 0 0 1 13 20h6a5 5 0 0 1 4.993 4.93 11.94 11.94 0 0 1-15.986 0"/>
    </symbol>
    <symbol id="icon-file-text" viewBox="0 0 32 32">
      <path d="M26.706 9.022c.187.188.294.441.294.706V29a1 1 0 0 1-1 1H6a1 1 0 0 1-1-1V3a1 1 0 0 1 1-1h13.272c.266 0 .522.106.709.294zm-2.012 1.166-5.881-5.881v5.881zM10 15.063a.25.25 0 0 0-.25.25v1.5a.25.25 0 0 0 .25.25h12a.25.25 0 0 0 .25-.25v-1.5a.25.25 0 0 0-.25-.25zm0 4.249a.25.25 0 0 0-.25.25v1.5a.25.25 0 0 0 .25.25h5.75a.25.25 0 0 0 .25-.25v-1.5a.25.25 0 0 0-.25-.25z"/>
    </symbol>
    <symbol id="icon-right-arrow" viewBox="0 0 32 32">
      <path d="M7.381 29.181a1.34 1.34 0 0 0 1.378-.085l17.333-12a1.33 1.33 0 0 0 .422-1.715 1.3 1.3 0 0 0-.422-.477l-17.333-12a1.337 1.337 0 0 0-1.9.407 1.33 1.33 0 0 0-.193.69v24a1.333 1.333 0 0 0 .714 1.181z"/>
    </symbol>
    <symbol id="icon-modal-close" viewBox="0 0 32 32">
      <path d="M23.884 6.706 16 14.59 8.116 6.706a.995.995 0 0 0-1.38.031 1 1 0 0 0-.031 1.38l7.88 7.884-7.882 7.882a1 1 0 0 0-.018 1.427 1 1 0 0 0 1.427-.016l7.886-7.882 7.884 7.884a1 1 0 0 0 1.411-1.411l-7.884-7.884 7.884-7.886a1 1 0 0 0 .018-1.427 1 1 0 0 0-1.427.015z"/>
    </symbol>
    <symbol id="icon-file-download" viewBox="0 0 24 32">
      <path d="M14.088 8.425V0H1.509C.673 0 0 .663 0 1.487V30.23c0 .824.673 1.487 1.509 1.487h21.132c.836 0 1.509-.663 1.509-1.487V9.912h-8.553c-.83 0-1.509-.669-1.509-1.487m4.808 13.093-6.064 5.928a1.085 1.085 0 0 1-1.512 0l-6.064-5.928c-.638-.624-.191-1.695.708-1.695h4.099v-4.956c0-.548.45-.991 1.006-.991h2.013a1 1 0 0 1 1.006.991v4.956h4.099c.898 0 1.346 1.071.709 1.695m4.815-15.014L17.554.433a1.52 1.52 0 0 0-1.069-.434h-.384v7.929h8.05V7.55c0-.39-.157-.768-.44-1.047z"/>
    </symbol>
  </defs>
</svg>
