<svg xmlns="http://www.w3.org/2000/svg" aria-hidden="true" style="position:absolute;width:0;height:0;overflow:hidden">
  <defs>

  <!-- Header -->
      <symbol id="icon-burger" viewBox="0 0 52 32">
      <path stroke-linecap="round" stroke-width="4" d="M2 2h48M2 16h48M2 30h48"/>
    </symbol>

     <symbol id="icon-arrow" viewBox="0 0 32 32">
      <path d="m9.6 24 8-8-8-8 1.6-3.2L22.4 16 11.2 27.2z"/>
    </symbol>

  <!-- Video -->
     <symbol id="icon-android" viewBox="0 0 28 32">
      <path d="M5.261 24.204c0 .836.708 1.518 1.578 1.518h1.804v4.3c0 1.089.908 1.979 2.023 1.979 1.119 0 2.023-.886 2.023-1.979v-4.303h3.149v4.3c0 1.089.908 1.979 2.023 1.979 1.119 0 2.023-.886 2.023-1.979v-4.3h1.804c.871 0 1.578-.682 1.578-1.518V10.087H5.261zM18.49 2.773 20.153.452c.096-.136.074-.318-.056-.407-.13-.086-.315-.043-.411.093L17.96 2.552c-1.137-.432-2.404-.671-3.734-.671s-2.597.239-3.734.671L8.766.141C8.67.005 8.484-.041 8.355.048c-.13.086-.152.264-.056.407l1.663 2.321C7.317 3.962 5.465 6.208 5.227 8.833h18.005c-.245-2.628-2.101-4.875-4.742-6.06m-8.065 3.66c-.197 0-.39-.056-.554-.162s-.292-.256-.367-.431a.94.94 0 0 1 .216-1.047 1.03 1.03 0 0 1 1.086-.208c.182.073.338.196.447.354s.168.344.168.534c-.001.255-.106.499-.293.679s-.44.281-.704.282zm7.72 0c-.197 0-.39-.056-.554-.162s-.292-.256-.367-.431a.94.94 0 0 1 .216-1.047 1.03 1.03 0 0 1 1.086-.208c.182.073.338.196.447.354s.168.344.168.534c-.001.255-.106.499-.293.679s-.44.281-.704.282zm8.277 3.597c-1.119 0-2.023.886-2.023 1.979v7.728c0 1.089.908 1.979 2.023 1.979 1.119 0 2.023-.886 2.023-1.979v-7.732c.004-1.093-.9-1.975-2.023-1.975m-24.399 0C.904 10.03 0 10.916 0 12.009v7.728c0 1.089.908 1.979 2.023 1.979 1.119 0 2.023-.886 2.023-1.979v-7.732c0-1.093-.908-1.975-2.023-1.975"/>
    </symbol>
    <symbol id="icon-apple" viewBox="0 0 27 32">
      <path d="M20.372 7.314c-2.881 0-4.098 1.384-6.104 1.384-2.057 0-3.626-1.374-6.122-1.374-2.443 0-5.049 1.502-6.704 4.061-2.323 3.608-1.929 10.404 1.834 16.193C4.622 29.65 6.42 31.975 8.777 32h.043c2.049 0 2.658-1.351 5.478-1.367h.043c2.778 0 3.335 1.359 5.375 1.359h.043c2.358-.025 4.252-2.6 5.598-4.665.969-1.485 1.329-2.23 2.072-3.91-5.443-2.08-6.318-9.85-.934-12.829-1.643-2.072-3.952-3.272-6.129-3.272l.007-.003zM20.056 0c-1.658.111-3.593 1.148-4.726 2.502-1.028 1.227-1.874 3.047-1.542 4.813h.133c1.766 0 3.573-1.045 4.629-2.383 1.017-1.274 1.788-3.079 1.506-4.931z"/>
    </symbol>
  
  <!-- Testimonials -->
    <symbol id="icon-star-filled" viewBox="0 0 32 32">
      <path d="M14.761 4.816c.458-1.089 2.019-1.089 2.478 0l2.705 6.425c.193.459.63.772 1.132.812l7.021.556c1.19.094 1.672 1.561.766 2.328l-5.349 4.527a1.32 1.32 0 0 0-.432 1.314l1.634 6.769c.277 1.147-.986 2.053-2.004 1.439l-6.011-3.627a1.36 1.36 0 0 0-1.399 0l-6.011 3.627c-1.018.615-2.281-.292-2.004-1.439l1.634-6.769a1.32 1.32 0 0 0-.432-1.314l-5.35-4.527c-.906-.767-.424-2.234.766-2.328l7.021-.556c.502-.04.938-.353 1.132-.812l2.705-6.425z"/>
    </symbol>

     <symbol id="icon-star-outline" viewBox="0 0 32 32">
      <path stroke-width="1.333" d="M15.375 5.076c.229-.545 1.021-.545 1.25 0l2.704 6.424a2.01 2.01 0 0 0 1.694 1.219l7.021.556c.61.048.828.78.388 1.154l-5.35 4.527a1.99 1.99 0 0 0-.65 1.98l1.635 6.768c.133.549-.482 1.031-1.013.711h-.001l-6.009-3.626a2.03 2.03 0 0 0-2.089 0l-6.01 3.626c-.531.32-1.146-.162-1.013-.711l1.635-6.768a1.99 1.99 0 0 0-.65-1.98l-5.35-4.527a.656.656 0 0 1 .388-1.154l7.021-.556A2.01 2.01 0 0 0 12.67 11.5l2.704-6.424z"/>
    </symbol>
  
  <!-- Footer -->
    <symbol id="icon-facebook" viewBox="0 0 32 32">
      <path d="M29.333 16.405C29.333 8.996 23.364 2.99 16 2.99S2.667 8.996 2.667 16.405c0 6.696 4.876 12.245 11.25 13.252v-9.374h-3.385v-3.878h3.385V13.45c0-3.362 1.991-5.219 5.036-5.219 1.459 0 2.985.262 2.985.262v3.301h-1.681c-1.656 0-2.173 1.034-2.173 2.095v2.516h3.698l-.591 3.878h-3.107v9.374c6.374-1.006 11.25-6.556 11.25-13.252z"/>
    </symbol>

    <symbol id="icon-instagram" viewBox="0 0 32 32">
      <path d="M15.998 6.161c3.206 0 3.585.014 4.846.071 1.172.052 1.804.248 2.226.412.558.216.961.478 1.378.895.422.422.679.82.9 1.378.164.422.361 1.059.412 2.226.056 1.266.071 1.645.071 4.847s-.014 3.585-.071 4.847c-.052 1.172-.248 1.804-.412 2.227a3.7 3.7 0 0 1-.895 1.377c-.422.422-.82.679-1.378.9-.422.164-1.06.361-2.226.412-1.266.056-1.645.071-4.847.071s-3.585-.014-4.847-.071c-1.172-.052-1.804-.248-2.226-.412a3.7 3.7 0 0 1-1.378-.895 3.8 3.8 0 0 1-.9-1.378c-.164-.422-.361-1.06-.412-2.226-.056-1.266-.071-1.645-.071-4.847s.014-3.585.071-4.847c.052-1.172.248-1.804.412-2.226.216-.558.478-.961.895-1.378.422-.422.82-.679 1.378-.9.422-.164 1.059-.361 2.226-.412 1.261-.056 1.641-.071 4.847-.071zm0-2.16c-3.258 0-3.665.014-4.945.071-1.275.056-2.151.262-2.91.558a5.85 5.85 0 0 0-2.127 1.387A5.9 5.9 0 0 0 4.629 8.14c-.295.764-.502 1.636-.558 2.91C4.015 12.335 4 12.742 4 15.999s.014 3.665.071 4.945c.056 1.275.262 2.151.558 2.91a5.9 5.9 0 0 0 1.387 2.127 5.9 5.9 0 0 0 2.123 1.383c.764.295 1.636.502 2.91.558 1.279.056 1.687.071 4.945.071s3.666-.014 4.945-.071c1.275-.056 2.151-.262 2.91-.558.787-.305 1.458-.717 2.123-1.383s1.078-1.336 1.383-2.123c.295-.764.502-1.635.558-2.91.056-1.279.071-1.687.071-4.945s-.014-3.665-.071-4.945c-.056-1.275-.262-2.151-.558-2.91a5.6 5.6 0 0 0-1.373-2.133 5.9 5.9 0 0 0-2.123-1.383c-.764-.295-1.635-.502-2.91-.558-1.284-.061-1.692-.075-4.949-.075L15.999 4z"/>
      <path d="M15.998 9.836a6.164 6.164 0 1 0 6.163 6.163 6.164 6.164 0 0 0-6.163-6.163m0 10.161a3.998 3.998 0 1 1 0-7.996 3.998 3.998 0 0 1 0 7.996M23.843 9.592a1.439 1.439 0 1 1-2.877 0 1.439 1.439 0 0 1 2.877 0"/>
    </symbol>

    <symbol id="icon-X" viewBox="0 0 32 32">
      <path d="M22.901 5.657h3.68l-8.04 9.037L28 26.991h-7.406l-5.801-7.458-6.637 7.458H4.474l8.6-9.666L4 5.657h7.594l5.243 6.817zM21.61 24.824h2.039L10.486 7.709H8.298z"/>
    </symbol>
   
  <!-- Mobile menu -->
    <symbol id="icon-close" viewBox="0 0 32 32">
      <path d="M23.884 6.706 16 14.59 8.116 6.706a.995.995 0 0 0-1.38.031 1 1 0 0 0-.031 1.38l7.88 7.884-7.882 7.882a1 1 0 0 0-.018 1.427 1 1 0 0 0 1.427-.015l7.886-7.882 7.884 7.884a1 1 0 0 0 1.38-.03 1 1 0 0 0 .03-1.38l-7.884-7.884 7.884-7.886a1 1 0 0 0 .018-1.427 1 1 0 0 0-1.427.015v.002z"/>
    </symbol>
  </defs>
</svg>
